<svg xmlns="http://www.w3.org/2000/svg" width="482" height="581" fill="none"><path stroke="#1F2A2E" stroke-opacity=".12" d="m231.439 366.161 22.345 214.334-135.689-1.144 20.11-149.001.044-.329-.287-.169-23.55-13.805-.296-.173-.268.214L-1.21 507.771l-70.078-119.827 192.145-87.1 110.582 65.317Zm113.241-61.286v.335l.309.127 136.305 56.162-66.741 122.104-169.8-127.206V225.741l169.802-127.21 66.739 120.962-136.308 57.309-.306.129v27.944ZM137.962 152.296l.287-.168-.044-.33-20.11-149.007L253.784.509l-22.345 214.33-110.582 65.317-192.147-87.101L-2.328 74.38l116.177 91.683.268.211.295-.172 23.55-13.806Z"/></svg>