<svg width="195" height="54" viewBox="0 0 162 44" fill="none" xmlns="http://www.w3.org/2000/svg">
<path d="M12.4927 36.2463C10.5446 36.2463 8.78511 35.9054 7.21439 35.2235C5.65585 34.5295 4.37127 33.5432 3.36065 32.2647C2.36221 30.9741 1.72906 29.4399 1.46118 27.6622L6.6482 26.8951C7.01348 28.4049 7.7684 29.5677 8.91296 30.3835C10.0575 31.1993 11.3604 31.6072 12.8215 31.6072C13.6373 31.6072 14.4287 31.4794 15.1958 31.2237C15.9629 30.968 16.59 30.5905 17.077 30.0913C17.5763 29.5921 17.8259 28.9772 17.8259 28.2466C17.8259 27.9788 17.7832 27.7231 17.698 27.4795C17.625 27.2238 17.4971 26.9864 17.3145 26.7672C17.1318 26.5481 16.87 26.3411 16.5291 26.1462C16.2004 25.9514 15.7803 25.7749 15.2689 25.6166L8.43809 23.6075C7.92669 23.4614 7.33006 23.2544 6.6482 22.9866C5.97852 22.7187 5.32709 22.3351 4.69394 21.8359C4.06078 21.3367 3.53112 20.6792 3.10496 19.8634C2.69097 19.0354 2.48397 17.9943 2.48397 16.7402C2.48397 14.9747 2.9284 13.5075 3.81726 12.3386C4.70611 11.1696 5.89328 10.2991 7.37877 9.72678C8.86425 9.1545 10.508 8.87445 12.3101 8.88663C14.1243 8.91098 15.7437 9.22147 17.1684 9.8181C18.593 10.4147 19.7862 11.2853 20.7481 12.4299C21.71 13.5622 22.4041 14.9503 22.8302 16.5941L17.4606 17.5073C17.2658 16.655 16.9066 15.9366 16.383 15.3521C15.8594 14.7677 15.2324 14.3233 14.5018 14.0189C13.7834 13.7144 13.0285 13.5501 12.237 13.5257C11.4578 13.5014 10.7211 13.611 10.0271 13.8545C9.34521 14.0858 8.78511 14.4268 8.34677 14.8773C7.9206 15.3278 7.70752 15.8635 7.70752 16.4845C7.70752 17.0568 7.88408 17.5256 8.23718 17.8909C8.59029 18.244 9.03472 18.5301 9.57047 18.7493C10.1062 18.9684 10.6541 19.1511 11.2142 19.2972L15.7803 20.5392C16.4621 20.7218 17.2171 20.9653 18.045 21.2697C18.873 21.5619 19.6645 21.9759 20.4194 22.5117C21.1865 23.0353 21.8135 23.7293 22.3006 24.5938C22.7998 25.4583 23.0494 26.5541 23.0494 27.8813C23.0494 29.2938 22.7511 30.5296 22.1545 31.589C21.57 32.6361 20.7786 33.5067 19.7801 34.2007C18.7817 34.8826 17.6493 35.394 16.383 35.7349C15.1289 36.0759 13.8321 36.2463 12.4927 36.2463Z" fill="#1F2A2E"/>
<path d="M37.4379 35.6984C36.0741 35.9541 34.7348 36.0637 33.4197 36.0272C32.1169 36.0028 30.948 35.7775 29.913 35.3514C28.8902 34.913 28.111 34.2129 27.5752 33.251C27.0882 32.35 26.8325 31.4368 26.8081 30.5114C26.7838 29.5738 26.7716 28.5145 26.7716 27.3334V10.4939H31.7394V27.0412C31.7394 27.8083 31.7455 28.5023 31.7577 29.1233C31.782 29.7321 31.9099 30.2192 32.1412 30.5844C32.5796 31.2785 33.2797 31.6559 34.2416 31.7168C35.2035 31.7777 36.2689 31.729 37.4379 31.5707V35.6984ZM23.411 19.8086V15.9731H37.4379V19.8086H23.411Z" fill="#1F2A2E"/>
<path d="M47.7146 36.2829C46.1682 36.2829 44.908 36.0211 43.9339 35.4975C42.9598 34.9739 42.1988 34.3103 41.6509 33.5067C41.1151 32.7031 40.7316 31.869 40.5002 31.0045C40.2689 30.1278 40.1289 29.3303 40.0802 28.6119C40.0315 27.8935 40.0071 27.3699 40.0071 27.0412V15.9731H45.048V25.2878C45.048 25.7383 45.0724 26.3167 45.1211 27.0229C45.1698 27.717 45.322 28.4171 45.5777 29.1233C45.8334 29.8295 46.2474 30.4201 46.8196 30.8949C47.4041 31.3698 48.226 31.6072 49.2853 31.6072C49.7115 31.6072 50.1681 31.5403 50.6551 31.4063C51.1421 31.2724 51.5988 31.0167 52.0249 30.6392C52.4511 30.2496 52.7981 29.6834 53.066 28.9407C53.346 28.1857 53.486 27.1995 53.486 25.9819L56.3353 27.3334C56.3353 28.892 56.0187 30.3531 55.3855 31.7168C54.7524 33.0805 53.7965 34.1825 52.518 35.0226C51.2517 35.8628 49.6506 36.2829 47.7146 36.2829ZM54.107 35.6984V29.1598H53.486V15.9731H58.4904V35.6984H54.107Z" fill="#1F2A2E"/>
<path d="M70.1335 36.2463C68.3193 36.2463 66.7303 35.7897 65.3666 34.8765C64.0029 33.9633 62.9375 32.7213 62.1704 31.1506C61.4154 29.5799 61.038 27.8083 61.038 25.8358C61.038 23.8267 61.4215 22.0429 62.1886 20.4844C62.9679 18.9136 64.0577 17.6778 65.4579 16.7767C66.8582 15.8757 68.5019 15.4252 70.3892 15.4252C72.2644 15.4252 73.8412 15.8818 75.1196 16.795C76.3981 17.7082 77.3661 18.9502 78.0237 20.5209C78.6812 22.0916 79.0099 23.8632 79.0099 25.8358C79.0099 27.8083 78.6751 29.5799 78.0054 31.1506C77.3479 32.7213 76.3616 33.9633 75.0466 34.8765C73.7316 35.7897 72.0939 36.2463 70.1335 36.2463ZM70.9372 31.8264C72.0452 31.8264 72.9279 31.5768 73.5855 31.0776C74.2551 30.5784 74.7361 29.8782 75.0283 28.9772C75.3205 28.0762 75.4667 27.029 75.4667 25.8358C75.4667 24.6425 75.3205 23.5954 75.0283 22.6943C74.7361 21.7933 74.2673 21.0932 73.622 20.5939C72.9888 20.0947 72.1548 19.8451 71.1198 19.8451C70.0118 19.8451 69.0986 20.1191 68.3802 20.667C67.674 21.2028 67.1504 21.9272 66.8095 22.8404C66.4685 23.7415 66.2981 24.7399 66.2981 25.8358C66.2981 26.9438 66.4624 27.9544 66.7912 28.8676C67.1199 29.7686 67.6253 30.487 68.3071 31.0228C68.989 31.5585 69.8657 31.8264 70.9372 31.8264ZM75.4667 35.6984V22.1829H74.8457V9.39802H79.8501V35.6984H75.4667Z" fill="#1F2A2E"/>
<path d="M83.8682 13.2335V8.8501H88.836V13.2335H83.8682ZM83.8682 35.6984V15.9731H88.836V35.6984H83.8682Z" fill="#1F2A2E"/>
<path d="M101.727 36.2463C99.7421 36.2463 98.0009 35.8019 96.5033 34.913C95.0056 34.0242 93.8367 32.8005 92.9965 31.2419C92.1686 29.6712 91.7546 27.8692 91.7546 25.8358C91.7546 23.778 92.1807 21.9698 93.0331 20.4113C93.8854 18.8406 95.0604 17.6169 96.5581 16.7402C98.0557 15.8635 99.7786 15.4252 101.727 15.4252C103.712 15.4252 105.453 15.8696 106.95 16.7585C108.46 17.6473 109.635 18.8771 110.475 20.4478C111.315 22.0064 111.736 23.8024 111.736 25.8358C111.736 27.8813 111.309 29.6895 110.457 31.2602C109.617 32.8188 108.442 34.0424 106.932 34.9313C105.434 35.808 103.699 36.2463 101.727 36.2463ZM101.727 31.6072C103.322 31.6072 104.509 31.0715 105.288 30C106.08 28.9163 106.475 27.5282 106.475 25.8358C106.475 24.0824 106.074 22.6821 105.27 21.635C104.479 20.5879 103.298 20.0643 101.727 20.0643C100.643 20.0643 99.7543 20.3078 99.0602 20.7949C98.3662 21.2819 97.8487 21.9577 97.5078 22.8222C97.179 23.6867 97.0146 24.6912 97.0146 25.8358C97.0146 27.6013 97.4104 29.0076 98.2018 30.0548C99.0054 31.0897 100.18 31.6072 101.727 31.6072Z" fill="#1F2A2E"/>
<path d="M118.911 35.6984L111.751 15.9731H116.719L121.394 29.6347L126.07 15.9731H131.038L123.878 35.6984H118.911Z" fill="#1F2A2E"/>
<path d="M137.251 36.2463C135.838 36.2463 134.639 35.9785 133.653 35.4427C132.679 34.8948 131.936 34.1703 131.425 33.2693C130.925 32.3561 130.676 31.3515 130.676 30.2557C130.676 29.3425 130.816 28.5084 131.096 27.7535C131.376 26.9986 131.826 26.335 132.447 25.7627C133.081 25.1782 133.927 24.6912 134.986 24.3016C135.717 24.0337 136.587 23.7963 137.598 23.5893C138.608 23.3823 139.753 23.1875 141.032 23.0048C142.31 22.81 143.716 22.5969 145.251 22.3656L143.461 23.3518C143.461 22.1829 143.181 21.3245 142.621 20.7766C142.06 20.2287 141.123 19.9547 139.808 19.9547C139.077 19.9547 138.316 20.1313 137.525 20.4844C136.733 20.8375 136.179 21.4645 135.863 22.3656L131.37 20.941C131.869 19.3094 132.807 17.9822 134.182 16.9594C135.558 15.9366 137.434 15.4252 139.808 15.4252C141.549 15.4252 143.095 15.6931 144.447 16.2288C145.798 16.7646 146.821 17.6899 147.515 19.005C147.905 19.7355 148.136 20.4661 148.209 21.1967C148.282 21.9272 148.319 22.743 148.319 23.6441V35.6984H143.972V31.6438L144.593 32.4839C143.631 33.8111 142.59 34.773 141.47 35.3696C140.362 35.9541 138.956 36.2463 137.251 36.2463ZM138.31 32.3378C139.223 32.3378 139.99 32.1795 140.611 31.8629C141.245 31.5342 141.744 31.1628 142.109 30.7488C142.487 30.3348 142.742 29.9878 142.876 29.7078C143.132 29.172 143.278 28.551 143.315 27.8448C143.363 27.1264 143.388 26.5298 143.388 26.0549L144.849 26.4202C143.375 26.6637 142.182 26.8707 141.269 27.0412C140.356 27.1995 139.619 27.3456 139.059 27.4795C138.499 27.6135 138.006 27.7596 137.58 27.9179C137.093 28.1127 136.697 28.3258 136.392 28.5571C136.1 28.7763 135.881 29.0198 135.735 29.2877C135.601 29.5556 135.534 29.8539 135.534 30.1826C135.534 30.6331 135.644 31.0228 135.863 31.3515C136.094 31.6681 136.417 31.9116 136.831 32.0821C137.245 32.2526 137.738 32.3378 138.31 32.3378Z" fill="#1F2A2E"/>
<path d="M152.41 35.6984V30.7306H157.378V35.6984H152.41Z" fill="#C1FF72"/>
</svg>
